# Rhino

mtllib MaterialTest.mtl
usemtl Building
v -5.1625859471910065 -4.3122857691925773 0.86873991155536001
v -1.1625859471910065 -4.3122857691925773 0.86873991155536001
v -1.1625859471910065 -0.31228776919257784 0.86873991155536001
v -5.1625859471910065 -0.31228776919257784 0.86873991155536001
vt 0.125 0.5
vt 0.375 0.5
vt 0.375 0.75
vt 0.125 0.75
vn 0 0 1
vn 0 0 1
vn 0 0 1
vn 0 0 1
f 1/1/1 2/2/2 3/3/3 4/4/4
usemtl Tree
v -1 -0.57480694608185767 0.86873991155536001
v 3 -0.57480694608185767 0.86873991155536001
v 3 3.4251930539181421 0.86873991155536001
v -1 3.4251930539181421 0.86873991155536001
vt 0.125 0.5
vt 0.375 0.5
vt 0.375 0.75
vt 0.125 0.75
vn 0 0 1
vn 0 0 1
vn 0 0 1
vn 0 0 1
f 5/5/5 6/6/6 7/7/7 8/8/8
